<svg xmlns="http://www.w3.org/2000/svg" id="directa__brand" version="1.1" x="0px" y="0px" viewBox="0 0 400 106" style="enable-background:new 0 0 361.7 106;" xml:space="preserve" width="190px" height="55.633px">
<style type="text/css"> .st0{fill:#BF2C22;} </style>
<defs/>
<g>
<path class="st0" d="M21,78.4V27.7L53.7,53L21,78.4z M34.1,0.1c-0.3,0-0.6,0-1,0L22.1,0c-0.1,0-0.2,0-0.3,0H1.3C0.6,0,0,0.6,0,1.3 v103.3c0,0.7,0.8,1.3,1.5,1.3h19.9l0,0l11.1,0c0.5,0,1,0.1,1.5,0.1c13.7,0,40.5-9.1,40.5-52.3C74.6,1.7,43.9,0.1,34.1,0.1"/>
<g>
<path class="st0" d="M83.2,52.9h19.4v51.8H83.2V52.9z M82.3,39.2c0-5.8,4.6-9.9,10.6-9.9c5.9,0,10.5,4.2,10.5,9.9 c0,5.7-4.6,9.8-10.5,9.8C86.8,49,82.3,44.9,82.3,39.2"/>
<path class="st0" d="M112.6,52.9h19.5v10.5c3.3-8,8.9-11.3,16.7-11.2v18.2c-10.8-0.6-16.7,3-16.7,10.4v23.9h-19.5V52.9z"/>
<path class="st0" d="M189.8,72.9c-0.2-5.6-2.9-8.9-8.1-8.9c-4.8,0-8.1,3.1-8.9,8.9H189.8z M153,79.5v-0.8 c0-16.9,12.9-27.3,28.7-27.3c14.6,0,27,8.3,27,27v4.8h-36c0.5,6.2,4.2,9.6,9.7,9.6c5.5,0,7.5-2.6,8.1-5.5h18.2 c-1.6,11.9-10.6,18.8-27.1,18.8C165.2,106,153,96.6,153,79.5"/>
<path class="st0" d="M212.9,79.6v-0.8c0-17.6,12.5-27.3,28.1-27.3c13,0,25,5.6,26,21.8h-18.3c-0.6-4.2-2.4-6.8-7.1-6.8 c-5.7,0-8.7,4-8.7,11.9v0.8c0,8.4,2.8,12.7,9,12.7c4.5,0,7.4-2.8,7.9-7.8h17.5c-0.5,13.4-9.3,22-26.8,22 C224.9,106,212.9,97.2,212.9,79.6"/>
<path class="st0" d="M276,87.4V66h-6V52.9h6V42.3h19.5v10.6h9.9V66h-9.9v19.5c0,3.6,1.9,5.1,5.1,5.1c1.8,0,3.2-0.2,4.9-0.8v14.7 c-2.4,0.7-6,1.5-10.3,1.5C282.9,105.9,276,100.4,276,87.4"/>
<path class="st0" d="M342.4,86.6v-2.7h-4.2c-6.5,0-8.9,1.3-8.9,5c0,2.5,1.9,4.1,5.4,4.1C339.2,92.9,342.4,90.5,342.4,86.6 M310.1,90.4c0-12.2,9.9-17,27.9-17h4.5v-0.9c0-4.4-0.8-7.5-6-7.5c-4.5,0-5.9,2.9-6.1,5.5H312c0.8-12.7,10.7-19.1,25.6-19.1 c15.1,0,24.2,6.1,24.2,19.8v33.5h-18.8v-5.9c-2.2,3.6-6.7,7.2-15.2,7.2C318.4,106,310.1,101.5,310.1,90.4"/>
<g> </g>
</g>
</g>
</svg>