<?xml version="1.0" encoding="utf-8"?>
<!-- Generator: Adobe Illustrator 22.1.0, SVG Export Plug-In . SVG Version: 6.00 Build 0)  -->
<svg version="1.1" id="Capa_1" xmlns="http://www.w3.org/2000/svg" xmlns:xlink="http://www.w3.org/1999/xlink" x="0px" y="0px"
	 viewBox="0 0 152.1 28.3" style="enable-background:new 0 0 152.1 28.3;" xml:space="preserve">
<style type="text/css">
	.st0{clip-path:url(#SVGID_1_);fill:#FFFFFF;}
	.st1{clip-path:url(#SVGID_2_);fill:#FFFFFF;}
</style>
<g>
	<g>
		<defs>
			<rect id="SVGID_5_" width="152.1" height="28.3"/>
		</defs>
		<clipPath id="SVGID_1_">
			<use xlink:href="#SVGID_5_"  style="overflow:visible;"/>
		</clipPath>
		<path class="st0" d="M124.2,22.4c-3.7,0-5.2-2.8-5.2-8.7c0-5.8,1.7-8.8,5.2-8.8c3,0,5.2,2.9,5.2,8.8
			C129.4,19.5,127.7,22.4,124.2,22.4 M111.4,13.7c0,8.4,4.2,13.7,12.8,13.7c8.1,0,12.7-5.3,12.7-13.7C137,5.2,132.7,0,124.3,0
			C116.3,0,111.4,5.4,111.4,13.7 M108.2,7.6C108.1,3.3,105.4,0,98,0c-6.8,0-10.4,3.6-10.4,8.5c0,4.6,3.2,6.9,6.7,7.6l4.1,0.8
			c2.5,0.4,3.3,1.2,3.3,2.8c0,1.6-1.3,2.8-3.7,2.8c-2.2,0-3.6-1.2-3.8-3.2h-7.3c0.3,5.7,4.1,8.2,10.9,8.2c7,0,11.1-3.1,11.1-9.2
			c0-4-2.5-6.5-7-7.3L97.8,10c-2.2-0.4-3-1.2-3-2.7c0-1.5,1.3-2.4,3.1-2.4c2.1,0,3.1,1.3,3.1,2.6L108.2,7.6L108.2,7.6z M79.2,26.8
			h7.3L77.3,0.4h-7.7l-9.1,26.4H67l1.6-4.8h9.2L79.2,26.8z M73.1,6.1L73.1,6.1c0.1,0,0.2,1.5,1,4.2l2,6.7h-6l2-6.7
			C72.9,7.7,73.1,6.2,73.1,6.1 M48.9,5.1c2.2,0,4,1.5,4.2,4.8h7.1C60,3.9,56.4,0,48.9,0c-8.1,0-12.5,5.3-12.5,14.1
			c0,7.9,3.7,13.2,12.6,13.2c6.7,0,10.9-3.8,11.1-9.9h-7.1c-0.3,3.4-2,4.8-4.2,4.8c-3,0-4.9-2.9-4.9-8.5C44,7.7,46.4,5.1,48.9,5.1
			 M20.5,26.8h16.1v-2.2H22.9V0.4h-2.4V26.8z M0,26.8h17v-2.2H2.4V14.4h13.1v-2.1H2.4V2.6h14.4V0.4H0V26.8z"/>
	</g>
	<g>
		<defs>
			<rect id="SVGID_7_" width="152.1" height="28.3"/>
		</defs>
		<clipPath id="SVGID_2_">
			<use xlink:href="#SVGID_7_"  style="overflow:visible;"/>
		</clipPath>
		<path class="st1" d="M141.6,0.5v8.4h1.1V5.3h9.3V4.1h-9.3V0.5L141.6,0.5L141.6,0.5z M151.9,9.2V7.9l-10.4,3.7v1.5l10.4,3.7v-1.3
			l-3.1-1.1v-4.1L151.9,9.2z M142.9,12.4L142.9,12.4c0,0,0.7-0.2,1.3-0.4l3.7-1.3v3.4l-3.7-1.3C143.6,12.6,142.9,12.4,142.9,12.4
			 M142.5,21.7c0-1.7,1.2-2.5,2.2-2.7v-1.3c-2.3,0.2-3.2,2.2-3.2,4c0,2.7,2,4.6,5.4,4.6c3.6,0,5.4-1.9,5.4-4.6c0-2.3-1.5-3.8-3.4-4
			V19c1.2,0.1,2.4,0.9,2.4,2.7c0,2.1-1.7,3.3-4.3,3.3C144.2,25,142.5,23.8,142.5,21.7 M151.9,26.7h-1.6v1.6h1.6V26.7z"/>
	</g>
</g>
</svg>
